{"title":"X-Men, First Class 2011 DVDrip English Klam","uid":6653004,"size":2105321966,"categoryP":"video","categoryS":"movies","magnet":"?xt=urn:btih:8d48cb4d891d4352a7fe7e01a54c35bf3dee784a&amp;dn=X-Men%2C+First+Class+2011+DVDrip+English+Klam&amp;tr=udp%3A%2F%2Ftracker.openbittorrent.com%3A80&amp;tr=udp%3A%2F%2Fopen.demonii.com%3A1337&amp;tr=udp%3A%2F%2Ftracker.coppersurfer.tk%3A6969&amp;tr=udp%3A%2F%2Fexodus.desync.com%3A6969","seeders":0,"leechers":0,"uploader":"Klambake","files":-1,"time":1315183979,"description":"With: James McAvoy, Michael Fassbender and Kevin Bacon\n\n'X-Men: First Class' vertelt over de epische beginselen van de X-Men sage, en onthult de geheime geschiedenis van wereldwijde gebeurtenissen. Voordat mutanten zichzelf voor de wereld bekend maakten en voordat Charles Xavier (James McAvoy) en Erik Lensherr ( Michael Fassbender) de namen Professor X en Magneto aannamen, waren ze twee jonge mannen die hun krachten nog voor het eerst moesten ontdekken. Ze waren toen nog geen aartsvijanden, sterker nog, ze waren beste vrienden die samen met andere mutanten (sommige bekend, sommige nieuw) de aanstaande armageddon probeerden te stoppen. Ergens in dat proces ontstaat er een kloof tussen beide mannen, waardoor de eeuwigdurende oorlog tussen Magneto's broederschap en de X-Men begon.\n\nIn 1962, the United States government enlists the help of Mutants with superhuman abilities to stop a malicious dictator who is determined to start world war III. \n\n------------------ Dutch Friends ------------------\nYou can find my Friends at: http://www.Film-Test.nl \n------ They got my dutchs subs ---- and more ------\n\nGeneral:\n\nComplete name                    : X-Men\\First Class.avi\nFormat                           : AVI\nFormat/Info                      : Audio Video Interleave\nFile size                        : 1.96 GiB\nDuration                         : 2h 11mn\nOverall bit rate                 : 2 131 Kbps\n\nVideo:\n\nFormat                           : MPEG-4 Visual\nFormat profile                   : Simple@L3\nFormat settings, BVOP            : No\nFormat settings, QPel            : No\nFormat settings, GMC             : No warppoints\nFormat settings, Matrix          : Default (H.263)\nCodec ID                         : XVID\nCodec ID/Hint                    : XviD\nDuration                         : 2h 11mn\nBit rate                         : 1 672 Kbps\nWidth                            : 720 pixels\nHeight                           : 304 pixels\nDisplay aspect ratio             : 2.35:1\nFrame rate                       : 23.976 fps\nColor space                      : YUV\nChroma subsampling               : 4:2:0\nBit depth                        : 8 bits\nScan type                        : Progressive\nBits/(Pixel*Frame)               : 0.319\nStream size                      : 1.54 GiB (78%)\nWriting library                  : XviD 1.1.2 (UTC 2006-11-01)\n\nAudio:\n\nFormat                           : AC-3\nFormat/Info                      : Audio Coding 3\nMode extension                   : CM (complete main)\nCodec ID                         : 2000\nDuration                         : 2h 11mn\nBit rate mode                    : Constant\nBit rate                         : 448 Kbps\nChannel(s)                       : 6 channels\nChannel positions                : Front: L C R, Side: L R, LFE\nSampling rate                    : 48.0 KHz\nBit depth                        : 16 bits\nStream size                      : 422 MiB (21%)\nAlignment                        : Aligned on interleaves\nInterleave, duration             : 32 ms (0.77 video frame)\nInterleave, preload duration     : 608 ms\n\n","torrent":{"xt":"urn:btih:8d48cb4d891d4352a7fe7e01a54c35bf3dee784a","amp;dn":"X-Men%2C+First+Class+2011+DVDrip+English+Klam","amp;tr":["udp%3A%2F%2Ftracker.openbittorrent.com%3A80","udp%3A%2F%2Fopen.demonii.com%3A1337","udp%3A%2F%2Ftracker.coppersurfer.tk%3A6969","udp%3A%2F%2Fexodus.desync.com%3A6969"],"infoHash":"8d48cb4d891d4352a7fe7e01a54c35bf3dee784a","infoHashBuffer":{"type":"Buffer","data":[141,72,203,77,137,29,67,82,167,254,126,1,165,76,53,191,61,238,120,74]},"announce":[],"urlList":[]}}